<svg id='heart' width="19" height="17" viewBox="0 0 19 17" fill="none" xmlns="http://www.w3.org/2000/svg">
<path d="M12.7921 0.706041L12.7908 0.706412C11.6246 1.0405 10.608 1.75671 9.90649 2.73707L9.49987 3.3053L9.09325 2.73707C8.39183 1.75685 7.3754 1.04071 6.20942 0.70656C3.76191 0.0109251 1.72662 1.22413 1.04107 2.61946L1.04088 2.61984C0.0360327 4.66073 0.407003 7.00883 2.37264 9.68235L12.7921 0.706041ZM12.7921 0.706041C15.2306 0.00045001 17.2722 1.2223 17.9587 2.61946L18.4074 2.39898M12.7921 0.706041L18.4074 2.39898M18.4074 2.39898L17.9589 2.61984C18.9638 4.66098 18.5926 7.00936 16.6324 9.68319L16.6315 9.68444C15.0799 11.8148 12.8412 13.9544 9.56295 16.4793L9.56213 16.48C9.54567 16.4927 9.52481 16.5 9.50284 16.5C9.48087 16.5 9.46001 16.4927 9.44355 16.48L9.44282 16.4794M18.4074 2.39898L9.44282 16.4794M9.44282 16.4794C6.16045 13.95 3.92593 11.7919 2.37284 9.68262L9.44282 16.4794Z" stroke="white"/>
</svg>
